# xmcd CD database file
#
# Track frame offsets:
#	151
#	16700
#	39629
#	58502
#	70543
#	90020
#	114815
#	136354
#	158445
#	179414
#	196271
#	214918
#
# Disc length: 3092 seconds
#
# Revision: 0
# Processed by: cddbd v1.5PL3 Copyright (c) Steve Scherf et al.
# Submitted via: CDex 1.50Beta7
#
DISCID=8b0c120c
DTITLE=Raulín Rodríguez - es mejor...
DYEAR=2004
DGENRE=Salsa
TTITLE0=Es Mejor
TTITLE1=Ay Hombre
TTITLE2=Y Ahore Te Vas
TTITLE3=No Me Vuelvo A Enamorar
TTITLE4=Nadie Mas Que Tú
TTITLE5=Si No Te Tengo
TTITLE6=Te Quiero
TTITLE7=Hoy Te Quiero Más
TTITLE8=Amor De Mi Vida
TTITLE9=Qué Será De Mí y De Ti
TTITLE10=Mi Tonto Amor
TTITLE11=Cométela Ripia
EXTD=YEAR: 2004
EXTT0=
EXTT1=
EXTT2=
EXTT3=
EXTT4=
EXTT5=
EXTT6=
EXTT7=
EXTT8=
EXTT9=
EXTT10=
EXTT11=
PLAYORDER=
